<svg width="180" height="42" viewBox="0 0 180 42" fill="none" xmlns="http://www.w3.org/2000/svg">
<path d="M46.3559 33.9088C46.3559 33.9088 48.4958 35.9332 48.51 38.1311C48.51 38.1311 47.2912 38.0299 46.2708 36.8297C45.2504 35.6151 45.0945 35.5283 45.1512 35.0512C45.1512 35.0512 45.5197 34.6897 47.4471 36.6418C47.4471 36.6418 47.3196 35.5283 44.9387 33.9811C44.9387 33.9811 45.5197 33.0557 44.9953 32.1013C44.9953 32.1013 44.3293 33.3449 43.7765 33.5907C43.5923 33.6341 43.8049 32.6508 43.5073 32.3037C43.5073 32.3037 42.9546 33.7642 42.4869 33.5184C42.4869 33.5184 42.5719 32.8098 42.3168 32.2459C42.3168 32.2459 41.6933 33.475 41.4807 33.3738C41.2681 33.2726 40.8571 32.6797 41.2114 31.8266C41.5657 30.9734 43.1955 31.0746 44.2017 31.2771C44.2017 31.2771 43.5214 30.3516 41.835 30.6553C41.835 30.6553 42.1326 29.6286 44.1308 30.1058C44.1308 30.1058 43.9891 29.5997 42.9404 29.3539C42.9404 29.3539 44.2584 28.3706 44.4285 27.4741C44.4285 27.4741 43.2097 27.5319 42.9262 27.1271C42.6428 26.7222 43.9041 27.1126 45.1371 25.9847C45.1371 25.9847 43.2522 26.1438 43.2238 25.7823C43.1955 25.4208 44.9812 24.7845 45.293 24.4086C45.293 24.4086 42.1751 25.2039 40.8429 23.006C40.8429 23.006 40.3469 24.0615 39.4682 24.4086V20.3164C39.4682 20.3164 39.8651 20.0417 40.8146 21.9215L40.928 22.0371C40.928 22.0371 40.8288 21.0394 41.1689 20.9671C41.509 20.8948 41.5657 21.5021 42.5861 21.56C43.6207 21.6033 44.8394 20.4899 44.5844 19.0295C44.5844 19.0295 45.4914 19.7669 44.6694 21.3431C43.8332 22.9047 42.5294 22.6445 42.5294 22.6445C42.5294 22.6445 44.3151 23.4687 45.9024 20.6924C45.9024 20.6924 46.2141 22.4276 44.1592 23.2952C44.1592 23.2952 45.9307 23.1216 46.5968 21.5455C47.2629 19.9838 46.7527 19.1596 46.4551 18.5957C46.1574 18.0317 47.0645 18.0317 46.9227 17.193C46.9227 17.193 46.5684 17.5835 45.8032 17.5256C45.0237 17.4678 42.6003 17.3232 41.6082 18.3065C41.6082 18.3065 41.5657 17.1352 43.6207 16.8605C45.6756 16.5857 47.7589 15.8338 47.4755 13.0864C47.4755 13.0864 46.7385 14.0552 45.8457 14.0552C44.9528 14.0552 43.4222 14.1998 42.8554 13.8094C42.8554 13.8094 43.3514 14.9807 45.6614 14.7782C45.7465 15.1397 45.1512 16.1519 43.2663 16.3688C40.9705 16.6436 39.9643 18.2342 39.9643 18.2342H39.6666C39.6666 18.2342 39.4966 16.7882 37.3141 16.499C35.1316 16.2098 34.6356 15.3855 34.6356 15.3855C34.6356 15.3855 36.1945 15.6458 37.2574 15.5735C38.3203 15.5012 39.6808 16.3977 39.6808 16.3977C39.6808 16.3977 38.8447 15.053 36.0953 14.5613C36.0953 14.5613 37.4416 13.9395 40.2619 14.8071C40.2619 14.8071 39.2415 13.8383 37.8951 13.6359C37.8951 13.6359 38.4195 13.5491 41.5515 13.5491C41.5515 13.5491 40.276 13.0286 38.5329 12.9996C36.7897 12.9707 35.5567 13.6359 34.8765 13.6648C34.1962 13.6937 32.8641 14.0263 31.7303 12.6815C31.7303 12.6815 31.3902 13.8817 31.872 14.7348C32.368 15.588 32.8782 16.9761 31.9429 18.4944C31.7445 18.7981 31.4894 18.7692 31.6169 18.2197C31.7303 17.6702 31.9287 16.1953 30.8516 14.7059C29.7745 13.2165 28.329 13.3322 27.9605 13.3322C27.592 13.3178 25.8064 13.1587 25.3812 11.8284C25.3812 11.8284 25.9339 11.5536 28.0314 12.4212C28.0314 12.4212 27.4078 11.7705 25.197 10.9174C23.8223 10.3968 23.1562 10.0642 23.0853 9.24003C23.0853 9.24003 24.1199 10.0932 26.1748 10.3968C26.1748 10.3968 22.0791 7.75065 20.4068 6.2468C20.4068 6.2468 21.6681 8.51703 21.6398 8.84961C21.6114 9.18219 18.692 6.50708 16.4386 5.1623C14.1853 3.81752 12.5413 3.10898 12.5413 3.10898C12.5413 3.10898 18.1109 6.86858 18.5644 7.73618C19.018 8.60379 13.3633 4.84418 11.9319 3.7163C10.4864 2.60288 7.48189 0.216977 6.05051 0.043457C6.05051 0.043457 5.83793 1.8365 8.14798 3.58616C10.4722 5.33582 10.7131 5.79854 10.7131 5.79854C10.7131 5.79854 4.06642 3.55724 2.50749 2.74748C2.50749 2.74748 1.3879 4.17902 3.72629 5.68286C6.07885 7.1867 8.4881 8.37243 8.4881 8.37243C8.4881 8.37243 2.63504 7.92416 0.424201 6.8975C0.424201 6.8975 -0.667048 7.75064 0.650954 9.00867C1.96896 10.2667 9.14002 11.6693 9.14002 11.6693C9.14002 11.6693 3.44285 11.9874 1.62883 11.7127C1.62883 11.7127 1.21784 13.4045 3.88218 14.4456C6.54653 15.4868 12.8389 15.3711 12.8389 15.3711L6.48984 16.4122C6.48984 16.4122 6.65991 18.7258 10.4722 18.7547C10.4722 18.7547 12.7397 18.7547 13.2074 18.7547C13.6751 18.7547 12.8814 19.3042 11.5776 19.7091C11.3083 20.085 12.1445 21.2418 14.2561 21.1695C15.7159 21.1695 16.0843 21.0828 16.0843 21.0828L14.7096 22.3263C14.7096 22.3263 14.9789 23.6711 17.2606 23.6422C18.5786 23.5988 18.8904 23.5554 18.8904 23.5554C18.8904 23.5554 18.2385 25.0014 19.5707 25.2183C20.9028 25.4352 21.7106 25.2183 21.7106 25.2183C21.7106 25.2183 21.243 26.621 21.7815 26.9391C22.32 27.2572 23.8648 27.3729 24.3466 27.2427C24.3466 27.2427 23.9357 28.9201 24.8994 29.2671C25.8631 29.5997 27.1952 28.6887 27.422 28.3851C27.422 28.3851 27.6487 30.236 28.6408 30.4673C29.6328 30.7131 30.639 29.7009 30.639 29.7009C30.639 29.7009 31.3902 30.771 32.2547 30.8433C33.1192 30.93 33.9128 29.5274 33.9128 29.5274C33.9128 29.5274 33.9978 30.3083 34.6639 30.7421V30.9734C34.6639 30.9734 33.6435 31.2626 33.7002 32.3471C33.7427 33.4316 33.7852 33.7787 33.7852 33.7787C33.7852 33.7787 30.4548 35.6585 30.3414 37.4371C30.3131 38.4926 30.3131 38.6228 30.3131 38.6228C30.3131 38.6228 31.0075 38.7674 32.0562 38.2613V39.8374C32.0562 39.8374 33.1617 40.0832 33.8703 39.2879V40.7195C33.8703 40.7195 35.415 40.9508 36.0811 40.2712C36.0811 40.2712 36.0386 41.1533 36.8606 41.5437C36.8606 41.5437 38.1219 41.1822 38.7171 40.2568C38.7171 40.2568 39.1848 41.3702 40.1202 41.7028C40.1202 41.7028 41.0272 41.4425 41.7499 40.0543C41.7499 40.0543 42.6144 41.0087 43.6632 41.2256C43.6632 41.2256 44.4001 40.6616 44.5985 39.6784C44.5985 39.6784 45.5622 40.2568 46.8661 40.0109C46.8661 40.0109 47.1778 39.5193 47.2345 38.5794C47.2345 38.5794 47.8723 38.8541 49.1478 38.7963C49.1478 38.7963 49.7997 35.8754 46.3842 33.8799L46.3559 33.9088ZM42.005 19.4922L42.0334 19.4777C42.0901 19.8392 42.416 20.114 42.7987 20.0561C43.0679 20.0127 43.2947 19.7958 43.3514 19.5356C43.3939 19.3331 43.3514 19.1307 43.238 18.9861L43.9324 19.015C43.9324 19.015 44.1734 19.8826 43.5923 20.461C43.0396 21.0249 42.1042 20.9671 41.6082 20.3453C41.4665 20.1718 41.3956 20.0127 41.3956 20.0127L41.9909 19.5066L42.005 19.4922ZM26.3591 15.1976C26.3591 15.1976 25.8914 16.1519 24.5876 16.1519C23.2837 16.1519 23.1137 15.4868 23.1137 15.4868C23.1562 15.4723 26.3732 15.212 26.3732 15.212L26.3591 15.1976ZM25.282 13.7516C25.282 13.7516 24.46 14.5613 23.1562 14.5613C21.8524 14.5613 20.7469 13.7516 20.7469 13.7516H25.282ZM23.1562 12.32C23.1562 12.32 22.2067 12.7104 20.8461 12.696C19.9108 12.696 19.0038 12.32 18.3944 11.597C18.0826 11.2355 17.955 10.9463 17.955 10.9463C17.955 10.9463 20.1801 12.161 23.142 12.32H23.1562ZM21.1721 10.4691C17.9692 10.4113 17.5441 8.99421 17.5441 8.99421C19.0038 8.60379 21.2288 10.4691 21.1721 10.4691ZM14.6104 8.41581C14.6104 8.41581 9.89114 7.82294 8.58731 6.04436C8.58731 6.04436 12.4988 6.73844 14.6104 8.41581ZM6.02217 9.09543C6.02217 9.09543 11.8044 8.63271 16.1977 10.7583C16.1977 10.7583 13.5334 11.3223 6.02217 9.09543ZM6.51819 12.9563C6.51819 12.9563 14.0436 12.3489 16.9488 12.9563C16.9488 12.9563 17.3173 13.6359 13.1082 13.6214C8.8991 13.607 6.51819 12.9563 6.51819 12.9563ZM9.55101 16.8749C9.55101 16.8749 12.0878 16.7592 15.234 15.9639C18.3802 15.1686 19.3297 15.1542 19.3297 15.1542C19.3297 15.1542 18.0826 16.5857 15.56 16.9906C13.0515 17.3955 10.4155 17.3232 9.55101 16.8749ZM15.2765 18.8849C15.2765 18.8849 16.5804 18.0173 18.8054 17.381C21.0304 16.7448 21.2571 16.3254 21.2571 16.3254C21.2571 16.3254 20.2793 18.0173 18.2101 18.4655C16.141 18.9138 15.2907 18.8849 15.2907 18.8849H15.2765ZM18.5361 21.0394C18.607 19.738 22.7735 18.3643 22.7735 18.3643C20.8461 21.2852 18.5361 21.0394 18.5361 21.0394ZM20.095 23.8302C20.9028 22.2685 24.46 20.0706 24.46 20.0706C24.46 20.0706 24.3041 20.9093 22.7735 22.3263C21.243 23.7434 20.0809 23.8302 20.0809 23.8302H20.095ZM22.9294 25.9847C22.9294 25.9847 23.057 24.6544 24.1199 23.8302C25.1828 23.006 25.8772 21.6756 25.8772 21.6756C25.4662 24.5243 22.9294 25.9847 22.9294 25.9847ZM25.6221 27.8501C25.6221 27.8501 25.4521 26.6065 26.2315 25.522C27.011 24.423 27.4362 22.6445 27.4362 22.6445C27.6204 26.2595 25.6221 27.8501 25.6221 27.8501ZM25.3954 17.2798C25.3954 17.2798 26.6 16.1085 27.6204 17.1497C27.6204 17.1497 26.2315 17.8437 25.3954 17.2798ZM28.7542 28.9346C28.1731 27.503 29.3919 25.7678 29.3919 25.7678C30.1147 27.2283 28.7542 28.9346 28.7542 28.9346ZM30.1147 15.8627C28.825 15.3277 27.8188 14.1564 27.8188 14.1564C27.8188 14.1564 28.7258 13.9251 29.5194 14.4746C30.3131 15.0096 30.1005 15.8772 30.1005 15.8772L30.1147 15.8627ZM33.4451 37.7407H32.779C32.779 37.7407 32.6798 36.5116 33.6293 36.179C33.6293 36.179 33.2184 37.1479 33.4593 37.7407H33.4451ZM43.4931 28.0959C43.4931 28.0959 42.2743 29.1515 40.7721 28.038C40.7721 28.038 42.2176 27.2138 43.4931 28.0959ZM42.9687 26.3318C42.9687 26.3318 42.0334 26.9535 41.3815 26.7366C40.7295 26.5197 40.517 26.2016 40.517 26.2016C40.517 26.2016 42.3168 25.3485 42.9687 26.3318ZM40.6729 27.156C40.6729 27.156 39.9217 28.3128 38.7596 27.5609C38.7596 27.5609 39.3407 26.5197 40.6729 27.156ZM40.6303 29.325C40.4036 29.484 40.0068 29.6576 39.5533 29.2961C39.4541 29.2093 39.4541 29.0647 39.5533 28.9779C39.7659 28.8189 40.1485 28.6454 40.6303 28.9635C40.7437 29.0502 40.7579 29.2238 40.6303 29.3105V29.325ZM37.5125 17.7859C38.5187 18.4944 38.051 19.3765 38.051 19.3765C36.733 17.7714 35.0607 17.7859 35.0607 17.7859C35.0891 17.3087 36.5063 17.0774 37.5125 17.7859ZM38.1361 31.3205C37.8101 30.3372 36.9173 30.3372 36.4779 30.4095C36.2654 30.4384 36.1378 30.1781 36.2937 30.0335C36.6338 29.7154 37.6967 29.8022 38.1361 30.3372C38.7171 31.0457 38.3345 31.6386 38.1361 31.3349V31.3205ZM35.0607 19.0005L35.7552 18.9716C35.6559 19.1162 35.5993 19.3187 35.6418 19.5211C35.6985 19.7958 35.9252 19.9983 36.1945 20.0417C36.5771 20.0995 36.9031 19.8248 36.9598 19.4633L36.9881 19.4777L37.5834 19.9838C37.5834 19.9838 37.5125 20.1429 37.3708 20.3164C36.8747 20.9382 35.9394 20.996 35.3867 20.4321C34.8198 19.8537 35.0466 18.9861 35.0466 18.9861L35.0607 19.0005ZM33.4026 20.2007C33.4026 20.2007 33.9411 23.2518 37.3566 22.7312C37.3566 22.7312 37.8101 23.2952 36.0103 23.5121C34.1962 23.729 32.5523 21.3575 33.4026 20.2007ZM31.6027 29.4985C30.639 28.7032 31.3618 27.2283 31.3618 27.2283C32.2972 28.0236 31.6027 29.4985 31.6027 29.4985ZM31.7019 23.8302C30.9933 21.0249 31.8437 20.3887 31.8437 20.3887C31.872 21.8636 32.4247 24.5243 33.9128 26.4619C35.4009 28.3995 35.1883 29.3394 35.1883 29.3394C33.9128 26.5776 32.2688 26.0859 31.7019 23.8302ZM35.4859 39.5771H34.5789C34.5789 39.5771 34.5789 39.4904 34.5789 38.8252C34.5789 38.1601 35.4859 37.278 35.4859 37.278V39.5916V39.5771ZM35.2024 32.4628C35.245 33.5473 35.1174 33.9667 35.1174 33.9667C33.9695 32.7375 34.6639 31.4072 35.3583 31.4072C36.0528 31.4072 36.0103 31.3928 36.563 31.4072C37.1157 31.4217 37.966 31.4506 37.9377 32.3037C37.9093 33.1569 37.144 33.7353 37.144 33.7353C36.4496 33.0701 36.6197 32.1736 36.6197 32.1736C36.1661 32.4483 36.1661 33.7353 36.1661 33.7353C35.4859 33.4316 35.2024 32.4628 35.2024 32.4628ZM37.3991 34.9355C37.6826 35.6006 36.5063 35.8465 36.5063 35.8465C36.2654 34.6752 37.3991 34.9355 37.3991 34.9355ZM36.7897 40.893C36.7897 40.893 36.7897 40.893 36.5913 39.635C36.3929 38.377 37.4841 37.278 37.4841 37.278L37.3991 39.6928C37.5267 39.2301 38.4337 38.912 38.4337 38.912C38.4478 40.9219 36.7897 40.893 36.7897 40.893ZM38.5187 36.5116C38.1219 35.0078 39.2982 35.0512 39.2982 35.0512C39.78 36.0634 38.5187 36.5116 38.5187 36.5116ZM41.2256 39.2156C41.1122 40.4014 40.1768 41.0665 40.1768 41.0665C38.5754 39.7362 39.6525 37.2057 39.6525 37.2057C39.7092 38.6517 40.3044 39.9965 40.3044 39.9965C40.8429 39.2446 40.6729 37.7696 40.6729 37.7696C40.6729 37.7696 41.3106 38.3336 41.2256 39.2301V39.2156ZM41.0555 36.902C39.8509 36.1357 40.1202 34.9933 40.1202 34.9933C40.8996 35.9188 40.928 35.7742 40.928 35.7742C41.2681 35.4416 41.4807 34.5161 41.4807 34.5161C41.9058 35.6151 41.0555 36.902 41.0555 36.902ZM42.6853 35.1379C42.827 35.2536 43.0254 35.1958 43.0963 35.0367C43.2097 34.7909 43.2805 34.5451 43.2805 34.5451C43.6348 34.9499 43.1671 36.1212 42.9404 36.1067C42.331 36.0923 42.0334 34.8921 42.0334 34.8921C42.2601 34.8343 42.5011 34.9789 42.6853 35.1235V35.1379ZM43.564 40.7339C41.3956 39.6494 41.8066 36.8442 41.8066 36.8442C42.8979 38.0588 43.323 39.5771 43.323 39.5771C43.5214 39.1 43.2805 37.7986 43.2805 37.7986C44.7969 39.4325 43.564 40.7339 43.564 40.7339ZM43.3939 36.3236C44.5418 36.6707 45.8173 38.3191 45.8173 38.3191C45.4347 36.9888 44.1875 36.0634 44.1875 36.0634C46.781 36.1935 46.781 39.7217 46.781 39.7217C44.1734 38.9264 43.3797 36.3236 43.3797 36.3236H43.3939Z" fill="white"/>
<path d="M73.9916 8.73385C75.3237 8.82061 75.2671 9.84727 77.2086 9.81835C79.136 9.77497 79.2069 7.40353 79.2069 7.40353C79.2069 7.40353 77.7188 7.50475 75.5222 7.64935C73.3255 7.77949 69.6408 8.40127 69.6408 8.40127C70.6045 8.15545 72.8153 7.09987 72.8153 7.09987C72.8153 7.09987 70.7745 6.70945 70.8595 6.04429C70.9446 5.37913 72.3051 5.94307 72.9712 6.21781C73.6373 6.49255 75.7347 6.40579 76.5992 4.93087C77.4637 3.45595 76.8543 2.66064 76.8543 2.66064C76.8543 2.66064 76.004 2.8197 73.8073 3.78853C69.3006 5.76955 67.8126 5.91415 67.8126 5.91415C68.3936 5.45143 68.592 4.98871 68.592 4.98871C68.592 4.98871 66.5796 5.69725 64.6947 6.76729C62.7956 7.85179 62.7956 7.67827 62.8665 7.54813C65.0915 5.84185 66.041 4.75735 66.041 4.75735C62.3988 7.11433 60.2163 8.14099 60.6557 7.64935C61.0808 7.15771 63.8586 4.91641 65.1766 4.30909C66.4946 3.70177 67.3024 4.54045 69.2014 4.42477C71.1005 4.32355 71.8091 2.8197 71.8091 2.8197C71.8091 2.8197 70.0943 3.75961 68.7763 3.38365C67.4583 2.99322 66.9055 2.9643 66.2253 3.26797C63.2633 4.69951 58.5582 8.12653 57.9913 8.66155C57.4386 9.19657 56.9001 9.41347 57.3252 8.89291C57.7362 8.37235 58.2748 6.95527 58.2748 6.95527C56.7158 7.34569 54.2641 9.96295 54.2641 9.96295C55.1711 9.96295 56.1348 9.34117 56.1348 9.34117C56.1348 9.34117 55.6954 10.5992 54.0373 10.9029C52.3792 11.2065 52.3792 11.4957 52.3792 11.4957C53.2153 11.3511 54.5192 11.3367 54.6467 11.5969C54.009 12.3344 51.6422 12.7682 51.1462 12.7248C50.6502 12.6814 51.543 11.8138 51.543 11.8138C50.4659 12.3055 48 14.4022 48.0425 15.5445C48.085 16.6869 47.2631 16.9616 47.2631 16.9616C47.2631 16.9616 47.6457 17.3954 47.9433 19.8247C48.3118 24.2494 44.3578 28.9634 44.3578 28.9634C44.5279 29.3972 46.1435 30.9878 46.1435 30.9878L46.1151 29.3249H46.356C46.6253 30.207 48.0284 31.0746 48.0284 31.0746C48.5527 30.8288 48.822 30.0913 48.822 30.0913C49.7007 30.5829 51.1179 30.4673 51.1179 30.4673C51.7273 30.019 51.6564 28.4573 51.6564 28.4573C52.5918 29.0357 53.3854 28.8911 53.3854 28.8911C53.3854 28.8911 51.5855 26.9679 50.7352 25.2472C49.8849 23.512 50.1258 22.413 50.1258 22.413C52.1241 27.0402 53.1303 27.4885 53.1303 27.4885C51.6989 25.3918 51.1037 22.4275 51.543 23.2372C51.9682 24.047 53.7822 26.8523 54.3491 27.6042C54.916 28.3561 54.2641 28.6164 54.2641 28.6164C55.9222 28.7176 54.9443 27.0981 54.9443 27.0981C56.0497 27.5174 56.4466 27.0981 56.4466 27.0981C53.1586 26.1437 52.3225 22.3552 52.3225 22.3552C53.3145 23.671 55.823 26.3317 55.7096 25.9123C55.5962 25.493 53.4421 22.3407 53.9806 22.7745C54.5333 23.1939 56.8859 25.6087 57.2827 25.9991C57.6795 26.3895 56.9568 26.78 56.9568 26.78C56.9568 26.78 56.8434 26.939 57.963 26.6932C59.0826 26.4474 57.8212 25.3484 57.8212 25.3484C58.6716 25.4062 58.8416 25.1315 58.8416 25.1315C54.6042 23.7723 54.1365 21.1839 54.1365 21.1839C57.5945 24.2784 58.2889 23.7867 58.2889 23.7867C55.5112 21.9069 55.4687 20.6923 55.4687 20.6923C58.8842 23.6277 60.3014 23.6277 60.3439 23.9747C60.4006 24.3217 59.4652 24.8134 59.4652 24.8134C60.3864 24.9435 61.0383 24.394 61.3784 24.047C61.7186 23.7 61.3643 23.5698 59.8904 22.8757C57.1268 21.6322 57.1126 20.6923 57.1126 20.6923C57.8921 21.2707 59.9896 21.7189 59.9896 21.7189C57.3252 20.1717 56.3757 18.2052 56.3757 18.2052C56.3757 18.2052 56.9284 18.8703 59.1959 19.9693C61.4635 21.0682 62.1154 20.9815 62.2429 21.3574C62.3563 21.7334 60.9816 22.2684 60.9816 22.2684C60.9816 22.2684 61.3217 22.4709 62.8098 22.2973C64.2979 22.1238 64.5672 21.0393 64.5672 21.0393C62.824 20.6923 59.6494 19.1017 58.6291 18.3208C57.6087 17.5545 58.544 17.728 59.6353 18.3353C60.7124 18.9282 62.739 19.2897 62.739 19.2897C62.739 19.2897 60.9674 18.4076 59.1959 17.4677C57.4386 16.5278 58.3173 16.4989 59.1959 16.9616C60.0746 17.4243 63.7735 18.6679 64.2554 18.8269C64.7372 18.986 63.4759 19.8825 63.4759 19.8825C63.4759 19.8825 63.6035 19.9548 65.5309 20.2151C67.4441 20.4754 67.8267 19.174 67.8267 19.174C64.0428 18.3931 62.7815 17.4243 62.7815 17.4243C64.5105 17.887 67.0756 17.8437 67.0756 17.8437C67.0756 17.8437 63.9719 16.9182 62.328 16.4121C60.684 15.906 59.1251 15.1107 60.599 15.4867C62.0587 15.8626 65.7151 16.3543 65.7151 16.3543C65.7151 16.3543 63.5042 15.3999 62.5972 15.0818C61.6902 14.7637 61.8036 14.2431 62.0162 14.4166C62.2429 14.5902 63.3909 14.836 65.6017 15.0095C67.8267 15.183 71.7099 15.0963 71.7099 15.0963C71.7099 15.0963 69.74 14.7348 68.2377 14.6191C63.2208 14.1564 63.9436 13.6647 63.9436 13.6647L69.3998 13.7081C68.2377 13.1152 67.9259 13.1586 65.1907 12.9706C62.4555 12.7827 62.8382 12.3055 62.8382 12.3055L70.3777 12.7248C71.4548 14.8794 74.4026 14.836 74.4026 14.836C74.4026 14.836 73.453 14.3443 73.0846 13.737C72.7161 13.1442 71.9508 12.6381 71.9508 12.6381C71.9508 12.6381 72.4893 12.5513 73.283 12.8116C74.6151 13.3611 74.3601 14.3154 75.6497 14.3588C76.9252 14.4022 77.5913 13.4478 77.5913 12.8116C77.5913 12.1753 77.5913 11.9584 77.5913 11.9584H68.9038C71.1005 11.6259 72.4752 10.9896 72.4752 10.9896C64.4963 11.6259 65.8285 11.1198 65.8285 11.1198C67.189 11.1487 70.7462 10.0208 70.7462 10.0208C68.8471 10.1076 62.7956 10.4401 62.7956 10.4401C65.1624 9.60145 71.2139 8.96521 71.2139 8.96521C73.1979 11.5825 75.7489 10.7004 75.7489 10.7004C75.7489 10.7004 74.5159 10.3389 73.5239 9.55807C72.5177 8.77723 72.7161 8.71939 74.0483 8.80615L73.9916 8.73385ZM47.9858 30.1491C46.767 29.6141 47.3056 25.9413 47.3056 25.9413C47.2914 27.2571 47.8866 28.7176 48.1701 29.3394C48.4677 29.9612 47.9858 30.1636 47.9858 30.1636V30.1491ZM50.9903 13.2598C51.6989 13.2165 52.5776 13.2598 52.5776 13.2598C52.5776 13.2598 51.0328 14.4166 49.5306 14.5757C49.5306 14.5757 50.2817 13.3032 51.0045 13.2598H50.9903ZM50.4093 26.4474C51.3304 28.4139 50.8911 30.1491 50.8911 30.1491C48.6236 28.9056 48.7795 26.3172 48.7795 26.3172C49.2755 27.7488 50.2534 28.7176 50.2534 28.7176C50.0833 27.5897 49.1621 24.1771 49.1621 24.1771C49.1621 24.1771 49.4881 24.4808 50.4093 26.4474ZM49.4597 16.4555C48.8078 16.5423 48.7653 16.4555 48.7653 16.4555C48.7795 16.441 49.4172 15.5301 49.7857 15.4867C50.1542 15.4433 50.7636 15.4144 50.7636 15.4144C50.7636 15.4144 50.1116 16.3687 49.4597 16.4555ZM51.1604 19.0149C50.5226 18.8269 50.2392 17.887 50.2392 17.887C50.2392 17.887 51.1887 18.6968 52.4075 18.5956C52.4075 18.5956 51.784 19.2174 51.1462 19.0294L51.1604 19.0149ZM53.9806 17.8147C52.3083 18.0027 51.4013 16.8025 51.4013 16.8025C52.3792 17.352 54.9868 16.9905 54.9868 16.9905C54.9868 16.9905 54.4908 17.6701 53.9806 17.8147ZM56.1773 16.0795C55.001 16.1229 54.179 16.1085 52.8327 15.3276C52.8327 15.3276 55.0577 15.7036 56.1773 15.4288C57.2969 15.1541 57.4103 15.0529 57.4103 15.0529C57.4103 15.0529 57.3536 16.0362 56.1773 16.0795ZM58.1472 14.4166C56.1348 14.7926 54.0231 14.0551 54.0231 14.0551C55.3978 13.7949 55.8797 13.9828 57.6228 13.7949C59.3802 13.6069 59.4794 13.0719 59.4794 13.0719C59.9045 13.5057 59.3093 14.1853 58.1472 14.4166ZM58.955 12.6236C57.7079 12.6236 55.9505 12.6236 55.9505 12.6236C55.9505 12.6236 56.2056 12.4212 58.5015 12.0741C60.7974 11.7415 61.2084 10.5414 61.2084 10.5414C61.8603 12.0307 60.2022 12.6236 58.955 12.6236ZM60.6131 9.97741C59.5219 10.4112 58.0622 10.4401 58.0622 10.4401C58.0622 10.4401 60.103 9.38455 61.0383 8.80615C61.9737 8.22775 61.7186 9.52915 60.6131 9.97741ZM65.2191 8.50249C63.8302 9.00859 62.5831 8.93629 62.5831 8.93629C62.5831 8.93629 65.2049 7.67827 66.8914 6.78175C69.0739 5.61049 69.74 7.53367 71.1288 7.37461C71.1288 7.37461 68.5212 8.97967 65.6017 8.95075L68.5778 7.49029C68.5778 7.49029 66.6079 8.01085 65.2191 8.51695V8.50249Z" fill="white"/>
<path d="M68.6908 15.8623H72.9282C72.9282 15.8623 72.7157 17.7132 70.9725 17.7999C69.2293 17.8867 69.6262 16.7444 68.6908 15.8623Z" fill="white"/>
<path d="M66.1541 15.6603C66.1541 15.6603 67.713 15.2844 68.3224 16.8894C68.4641 17.2365 68.6625 17.5691 68.9318 17.8149C69.0026 17.8872 69.0593 17.9161 69.0593 17.9161C69.0593 17.9161 68.209 18.0462 67.387 16.8316C66.7209 15.8628 66.1541 15.6603 66.1541 15.6603Z" fill="white"/>
<path d="M68.1096 2.35698C68.1096 2.35698 71.2983 1.31586 72.7864 0C72.7864 0 73.5659 2.0967 71.4117 2.35698C70.037 2.35698 68.1096 2.35698 68.1096 2.35698Z" fill="white"/>
<path d="M86.2301 10C87.1161 10 87.9626 10.1239 88.7895 10.3716C89.6163 10.6193 90.3251 11.0115 90.9354 11.5688C91.5457 12.1055 92.0182 12.7454 92.3135 13.4679C92.6088 14.1904 92.7663 14.9954 92.7663 15.9243C92.7663 16.8945 92.6088 17.8027 92.2741 18.6078C91.9394 19.4335 91.4473 20.1147 90.8173 20.6927C90.1873 21.2706 89.4392 21.6835 88.5532 21.9518C87.687 22.2202 86.7617 22.344 85.8167 22.344C84.8717 22.344 83.9858 22.2202 83.1196 21.9518C82.2533 21.6835 81.5249 21.2706 80.8752 20.6927C80.2452 20.1147 79.7924 19.4748 79.5168 18.7729C79.2412 18.0711 79.123 17.2867 79.123 16.4197C79.123 15.1399 79.3987 14.0252 79.9696 13.0757C80.5405 12.1055 81.3674 11.3624 82.4699 10.8257C83.5724 10.289 84.8127 10.0206 86.2105 10.0206L86.2301 10ZM86.0726 12.6216C85.4427 12.6216 84.852 12.7867 84.3402 13.117C83.8283 13.4472 83.4346 13.9014 83.1589 14.4794C82.8833 15.0573 82.7455 15.6972 82.7455 16.3578C82.7455 16.9771 82.8636 17.5344 83.1196 18.0505C83.3755 18.5665 83.7495 18.9587 84.2811 19.2477C84.793 19.5367 85.3442 19.6812 85.9151 19.6812C86.5255 19.6812 87.0964 19.516 87.6082 19.2064C88.1201 18.8761 88.5139 18.422 88.7895 17.844C89.0651 17.266 89.1832 16.6468 89.1832 16.0069C89.1832 15.3876 89.0651 14.8096 88.8092 14.2936C88.5532 13.7775 88.1989 13.3647 87.7067 13.0757C87.2342 12.7867 86.6829 12.6422 86.0726 12.6422V12.6216ZM94.9319 22.117L94.6563 20.5069C94.5972 20.1353 94.4791 19.5986 94.3413 18.9174L92.9829 12.4151L92.4907 10.2271C93.1797 10.2477 93.7507 10.2477 94.1838 10.2477C94.676 10.2477 95.2272 10.2477 95.8769 10.2271C96.0344 11.1766 96.1525 11.8578 96.2313 12.3119L96.9203 15.8211C97.0581 16.5849 97.2353 17.4931 97.3928 18.5871L97.6684 17.3693L98.6528 13.344L99.3418 10.2271C100.11 10.2477 100.74 10.2477 101.271 10.2477C101.842 10.2477 102.472 10.2477 103.181 10.2271L103.712 13.9014L104.441 18.5665L104.756 17.2867C104.815 17.0596 104.874 16.8326 104.953 16.6055C105.012 16.3784 105.169 15.9243 105.366 15.2638L106.37 11.9197L106.843 10.2271C107.512 10.2271 108.063 10.2271 108.496 10.2271C108.989 10.2271 109.54 10.2271 110.15 10.2271L106.941 20.3417L106.429 22.117C105.602 22.0963 104.874 22.0963 104.264 22.0963C103.614 22.0963 102.886 22.0963 102.098 22.117L101.901 20.9197L101.173 16.7706C101.133 16.5229 101.094 16.2546 101.074 16.0069C101.055 15.7385 100.996 15.3257 100.956 14.7683L100.661 16.1307C100.582 16.4404 100.523 16.7294 100.444 17.039L99.1056 22.117C98.2787 22.0963 97.57 22.0963 97.0188 22.0963C96.4281 22.0963 95.7391 22.0963 94.9319 22.117ZM109.717 22.117C109.855 20.7546 109.953 19.6193 110.012 18.7523C110.13 17.1835 110.209 15.594 110.268 14.0459C110.327 12.4771 110.347 11.2179 110.347 10.2064C111.095 10.2271 111.764 10.2271 112.355 10.2271C112.749 10.2271 113.32 10.2271 114.048 10.2064L113.851 13.3647L113.595 18.2982L113.556 19.516C114.501 19.5367 115.131 19.5367 115.426 19.5367C116.883 19.5367 117.986 19.516 118.734 19.4748L118.537 22.0963C117.08 22.0757 115.702 22.0757 114.383 22.0757C112.591 22.0757 111.036 22.0757 109.697 22.0963L109.717 22.117ZM129.306 15.2018C130.054 15.2225 130.782 15.2225 131.471 15.2225C132.633 15.2225 133.558 15.2225 134.228 15.2018C134.149 15.9862 134.09 17.1216 134.011 18.5665C133.932 20.0321 133.893 21.1261 133.873 21.8693C133.243 21.9931 132.712 22.0757 132.298 22.1376C131.885 22.1995 131.373 22.2408 130.782 22.2821C130.192 22.3234 129.68 22.344 129.207 22.344C128.459 22.344 127.711 22.2821 126.983 22.1582C126.254 22.0344 125.605 21.828 125.034 21.539C124.463 21.25 123.99 20.8578 123.597 20.383C123.222 19.8876 122.927 19.3096 122.711 18.6491C122.494 17.9885 122.396 17.2867 122.396 16.5849C122.396 15.4083 122.671 14.3142 123.242 13.3028C123.793 12.2913 124.601 11.4862 125.664 10.9083C126.707 10.3096 128.066 10.0206 129.719 10.0206C130.94 10.0206 132.279 10.1651 133.755 10.4748C133.755 11.3211 133.795 12.25 133.854 13.2821C133.46 13.1376 133.125 13.0344 132.889 12.9725C132.633 12.9105 132.357 12.828 132.023 12.7661C131.688 12.7041 131.373 12.6628 131.078 12.6422C130.782 12.6216 130.507 12.6009 130.29 12.6009C129.68 12.6009 129.109 12.6835 128.558 12.8693C128.026 13.055 127.554 13.3234 127.16 13.7156C126.766 14.0872 126.471 14.5413 126.294 15.078C126.097 15.6147 125.998 16.172 125.998 16.75C125.998 17.3486 126.117 17.8853 126.333 18.3394C126.55 18.8142 126.904 19.1651 127.396 19.4128C127.869 19.6605 128.42 19.7844 129.011 19.7844C129.503 19.7844 130.054 19.7018 130.625 19.5573L130.704 17.6995C130.349 17.6789 130.133 17.6789 130.074 17.6789H129.188L129.247 16.6055C129.247 16.4816 129.266 16.3165 129.266 16.1101C129.286 15.883 129.286 15.594 129.286 15.2225L129.306 15.2018ZM134.503 22.117C134.602 21.0849 134.7 20.1766 134.759 19.3509C134.818 18.5252 134.877 17.5757 134.917 16.5023C134.956 15.4289 134.995 14.2729 135.015 13.0757C135.035 11.8784 135.055 10.9289 135.055 10.2064C135.744 10.2271 136.295 10.2271 136.728 10.2271C137.161 10.2271 137.712 10.2064 138.342 10.1858C138.972 10.1651 139.602 10.1445 140.193 10.1445C140.902 10.1445 141.532 10.1651 142.083 10.2271C142.496 10.2683 142.87 10.3509 143.205 10.4748C143.54 10.5986 143.835 10.7638 144.071 10.9289C144.308 11.1147 144.504 11.3211 144.662 11.5482C144.819 11.7752 144.938 12.0436 145.016 12.3532C145.095 12.6628 145.134 12.9931 145.134 13.3234C145.134 13.7156 145.095 14.0872 144.997 14.4174C144.898 14.7477 144.76 15.078 144.544 15.367C144.347 15.6766 144.091 15.9243 143.776 16.1514C143.461 16.3784 143.028 16.5849 142.477 16.8119L142.91 17.9266C143.028 18.2362 143.166 18.5459 143.303 18.8761L144.406 21.4358C144.465 21.539 144.544 21.766 144.682 22.0963C143.756 22.0757 143.146 22.0757 142.831 22.0757C142.437 22.0757 141.788 22.0757 140.862 22.0963C140.783 21.7867 140.606 21.2293 140.39 20.4037C140.291 20.0527 140.213 19.7844 140.153 19.6193C140.016 19.2064 139.819 18.6284 139.563 17.8853L138.716 15.4082C139.012 15.4702 139.307 15.4908 139.602 15.4908C139.996 15.4908 140.37 15.4289 140.705 15.305C141.039 15.1812 141.276 14.9748 141.453 14.7064C141.61 14.4381 141.709 14.1697 141.709 13.8601C141.709 13.6124 141.65 13.3853 141.512 13.1995C141.394 13.0138 141.177 12.8693 140.902 12.7867C140.626 12.7041 140.213 12.6422 139.642 12.6422C139.445 12.6422 139.248 12.6422 139.031 12.6628C138.815 12.6628 138.579 12.6835 138.303 12.6835C138.224 13.8807 138.165 15.3257 138.106 17.039C138.047 18.7523 138.008 20.4243 137.988 22.0757C137.063 22.055 136.472 22.055 136.177 22.055C135.862 22.055 135.271 22.055 134.444 22.0757L134.503 22.117ZM151.907 10C152.793 10 153.639 10.1239 154.466 10.3716C155.293 10.6193 156.002 11.0115 156.612 11.5688C157.222 12.1055 157.695 12.7454 157.99 13.4679C158.285 14.1904 158.443 14.9954 158.443 15.9243C158.443 16.8945 158.285 17.8027 157.951 18.6078C157.616 19.4335 157.124 20.1147 156.494 20.6927C155.864 21.2706 155.116 21.6835 154.23 21.9518C153.364 22.2202 152.438 22.344 151.493 22.344C150.548 22.344 149.662 22.2202 148.796 21.9518C147.93 21.6835 147.202 21.2706 146.552 20.6927C145.922 20.1147 145.469 19.4748 145.193 18.7729C144.918 18.0711 144.8 17.2867 144.8 16.4197C144.8 15.1399 145.075 14.0252 145.646 13.0757C146.217 12.1055 147.044 11.3624 148.147 10.8257C149.249 10.289 150.489 10.0206 151.887 10.0206L151.907 10ZM151.749 12.6216C151.119 12.6216 150.529 12.7867 150.017 13.117C149.505 13.4472 149.111 13.9014 148.836 14.4794C148.56 15.0573 148.422 15.6972 148.422 16.3578C148.422 16.9771 148.54 17.5344 148.796 18.0505C149.052 18.5665 149.426 18.9587 149.958 19.2477C150.47 19.5367 151.021 19.6812 151.592 19.6812C152.202 19.6812 152.773 19.516 153.285 19.2064C153.797 18.8761 154.191 18.422 154.466 17.844C154.742 17.266 154.86 16.6468 154.86 16.0069C154.86 15.3876 154.742 14.8096 154.486 14.2936C154.23 13.7775 153.876 13.3647 153.383 13.0757C152.911 12.7867 152.36 12.6422 151.749 12.6422V12.6216ZM158.876 10.2064C159.742 10.2271 160.353 10.2271 160.707 10.2271C161.14 10.2271 161.731 10.2271 162.479 10.2064L162.223 13.922C162.184 14.6238 162.144 15.2638 162.105 15.883C162.085 16.5023 162.065 16.9151 162.065 17.1422C162.065 17.5757 162.105 17.9472 162.164 18.2569C162.223 18.5459 162.341 18.7936 162.499 19C162.656 19.2064 162.892 19.3716 163.168 19.4748C163.463 19.578 163.759 19.6399 164.054 19.6399C164.329 19.6399 164.566 19.5986 164.802 19.5367C164.979 19.4748 165.156 19.3922 165.294 19.2683C165.412 19.1651 165.53 19.0413 165.629 18.8968C165.747 18.7316 165.845 18.5252 165.944 18.2775C166.023 18.0505 166.101 17.7408 166.141 17.3693C166.18 16.9977 166.259 16.1307 166.338 14.7683C166.416 13.6124 166.456 12.5596 166.495 11.6101C166.534 10.6812 166.554 10.2271 166.593 10.2271C167.42 10.2271 168.09 10.2271 168.562 10.2271H170.255L169.862 16.4197C169.862 16.5436 169.862 16.6261 169.862 16.7087C169.842 17.9266 169.763 18.7729 169.645 19.2683C169.527 19.7638 169.33 20.1972 169.054 20.5688C168.779 20.9404 168.365 21.2706 167.834 21.5596C167.302 21.8486 166.692 22.055 166.023 22.1789C165.353 22.3027 164.664 22.3647 163.975 22.3647C163.345 22.3647 162.754 22.3234 162.184 22.2202C161.652 22.1376 161.179 21.9931 160.746 21.8073C160.313 21.6215 159.959 21.4151 159.624 21.1881C159.329 20.961 159.112 20.7339 158.955 20.5069C158.797 20.2798 158.679 20.0115 158.581 19.6812C158.482 19.3303 158.423 18.9381 158.423 18.5252C158.423 18.3807 158.423 18.1743 158.443 17.8853C158.463 17.5963 158.482 17.2041 158.522 16.6674L158.62 15.2638C158.64 14.8922 158.679 14.3555 158.699 13.6537L158.856 10.2064H158.876ZM170.255 22.0963L170.413 19.867L170.629 15.5115L170.728 12.4358C170.728 12.1055 170.728 11.7752 170.728 11.445C170.728 11.1972 170.728 10.7844 170.728 10.2271C171.456 10.2477 172.047 10.2477 172.48 10.2477C172.913 10.2477 173.484 10.2271 174.232 10.2064C174.98 10.1858 175.61 10.1651 176.122 10.1651C176.87 10.1651 177.421 10.2064 177.776 10.3096C178.13 10.4128 178.465 10.5573 178.741 10.7844C179.036 10.9908 179.272 11.2385 179.449 11.5275C179.646 11.8165 179.784 12.1468 179.863 12.4977C179.961 12.8693 180 13.2408 180 13.6124C180 14.3968 179.823 15.0986 179.469 15.7592C179.115 16.3991 178.603 16.8945 177.953 17.2041C177.303 17.5138 176.575 17.6789 175.748 17.6789C175.453 17.6789 175.098 17.6376 174.705 17.5757C174.665 17.3073 174.587 16.9151 174.449 16.3991C174.331 15.883 174.232 15.4908 174.153 15.2225C174.39 15.2638 174.646 15.2844 174.921 15.2844C175.472 15.2844 175.886 15.1399 176.161 14.8509C176.437 14.5619 176.575 14.2316 176.575 13.8188C176.575 13.6124 176.536 13.4472 176.476 13.2821C176.417 13.1376 176.319 12.9931 176.181 12.9105C176.043 12.8073 175.906 12.7454 175.748 12.7248C175.591 12.7041 175.413 12.6835 175.197 12.6835C175 12.6835 174.783 12.6835 174.567 12.7041L173.878 12.7454C173.799 13.8601 173.76 15.1193 173.72 16.4816C173.661 18.9793 173.622 20.4656 173.622 20.9816V22.117L171.968 22.0963C171.732 22.0963 171.161 22.0963 170.236 22.117L170.255 22.0963Z" fill="white"/>
<path d="M79.123 31.0494H79.7381V28.7404L80.8658 30.154H80.9683L82.0703 28.7168V31.0494H82.6854V27.8215H82.0959L80.9426 29.3294L79.7381 27.8215H79.123V31.0494ZM84.5818 31.0494H86.6577V30.5075H85.1969V29.6828H86.4527V29.1409H85.1969V28.3399H86.6065V27.798H84.5818V31.0258V31.0494ZM89.3487 29.3765L87.9648 31.0494H88.6824L90.015 29.3765V31.0494H90.6301V29.3765L91.9628 31.0494H92.6804L91.2964 29.353L92.6291 27.8215H91.9115L90.6301 29.353V27.8215H90.015V29.353L88.7336 27.8215H88.016L89.3487 29.3765ZM93.6799 31.6384H94.2693V31.0729H96.7296V31.6384H97.3191V30.531H96.8321V27.8451H94.6537L94.6281 28.4812C94.5768 29.6828 94.2437 30.3661 94.0899 30.531H93.7055V31.6384H93.6799ZM95.1663 28.9289L95.2175 28.3634H96.1914V30.531H94.7306C94.8588 30.3897 95.115 29.7535 95.1663 28.9289ZM101.496 27.8451H100.881L100.036 29.6593L98.8824 27.8451H98.1904L99.7537 30.2012L99.7025 30.319C99.6256 30.4603 99.5231 30.5546 99.3437 30.5546C99.2412 30.5546 99.1899 30.531 99.0874 30.4839L98.8824 30.9551C98.9849 31.0258 99.1899 31.0729 99.3693 31.0729C99.805 31.0729 100.087 30.8137 100.318 30.319L101.522 27.8451H101.496ZM105.213 31.0729H105.828V27.8451H105.213V29.1645H103.598V27.8451H102.983V31.0729H103.598V29.6828H105.213V31.0729ZM107.288 31.0729H107.904L108.262 30.2483H109.774L110.133 31.0729H110.799L109.313 27.8215H108.775L107.288 31.0729ZM109.031 28.5755L109.544 29.73H108.519L109.031 28.5755ZM112.875 31.0729V29.8949C113.029 29.9184 113.234 29.9184 113.337 29.9184C114.182 29.9184 114.618 29.4237 114.618 28.8582C114.618 28.3163 114.285 27.8215 113.26 27.8215C113.004 27.8215 112.465 27.8215 112.26 27.8215V31.0494H112.875V31.0729ZM113.311 28.3634C113.721 28.3634 113.952 28.5284 113.952 28.8582C113.952 29.2116 113.67 29.3765 113.311 29.3765C113.183 29.3765 113.029 29.3765 112.875 29.353V28.3634C113.029 28.3634 113.183 28.3634 113.311 28.3634ZM115.976 29.4472C115.976 30.4603 116.771 31.12 117.796 31.12C118.847 31.12 119.641 30.4132 119.641 29.4472C119.641 28.4341 118.847 27.7744 117.796 27.7744C116.72 27.7744 115.976 28.5048 115.976 29.4472ZM116.617 29.4472C116.617 28.7875 117.13 28.3163 117.796 28.3163C118.462 28.3163 118.975 28.7875 118.975 29.4472C118.975 30.0834 118.539 30.5781 117.796 30.5781C117.13 30.5781 116.617 30.0834 116.617 29.4472ZM120.718 31.6384H121.307V31.0729H123.767V31.6384H124.357V30.531H123.87V27.8451H121.691L121.666 28.4812C121.615 29.6828 121.281 30.3661 121.128 30.531H120.743V31.6384H120.718ZM122.204 28.9289L122.255 28.3634H123.229V30.531H121.768C121.896 30.3897 122.153 29.7535 122.204 28.9289ZM128.099 31.0729H128.714V27.8451H128.099V29.1645H126.484V27.8451H125.869V31.0729H126.484V29.6828H128.099V31.0729ZM133.378 31.0729H133.993V27.8451H133.378V31.0729ZM131.584 29.4472C132.02 29.4472 132.276 29.6357 132.276 29.9656C132.276 30.3425 132.045 30.531 131.584 30.531C131.456 30.531 131.353 30.531 131.251 30.5075V29.4472C131.379 29.4237 131.507 29.4237 131.584 29.4237V29.4472ZM131.251 27.8451H130.636V31.0729C130.841 31.0729 131.174 31.0729 131.507 31.0729C132.404 31.0729 132.917 30.6488 132.917 29.9656C132.917 29.3294 132.507 28.9289 131.635 28.9289C131.533 28.9289 131.405 28.9289 131.251 28.9525V27.8451ZM135.915 31.0729H137.991V30.531H136.53V29.7064H137.786V29.1645H136.53V28.3634H137.94V27.8215H135.915V31.0494V31.0729ZM144.065 31.0729H144.68V27.8451H141.886V31.0729H142.502V28.387H144.065V31.0729ZM146.602 31.0729H148.678V30.531H147.217V29.7064H148.473V29.1645H147.217V28.3634H148.627V27.8215H146.602V31.0494V31.0729ZM151.036 31.0729V29.8949C151.19 29.9184 151.395 29.9184 151.497 29.9184C152.343 29.9184 152.778 29.4237 152.778 28.8582C152.778 28.3163 152.445 27.8215 151.42 27.8215C151.164 27.8215 150.626 27.8215 150.421 27.8215V31.0494H151.036V31.0729ZM151.471 28.3634C151.881 28.3634 152.112 28.5284 152.112 28.8582C152.112 29.2116 151.83 29.3765 151.471 29.3765C151.343 29.3765 151.19 29.3765 151.036 29.353V28.3634C151.19 28.3634 151.343 28.3634 151.471 28.3634ZM154.419 31.0729H156.495V30.531H155.034V29.7064H156.29V29.1645H155.034V28.3634H156.443V27.8215H154.419V31.0494V31.0729ZM158.237 31.0729C158.442 31.0965 158.904 31.0965 159.211 31.0965C159.954 31.0965 160.518 30.7902 160.518 30.1305C160.518 29.7064 160.236 29.4472 159.903 29.3765C160.211 29.2587 160.416 29.0231 160.416 28.6462C160.416 28.1985 160.108 27.8451 159.262 27.8451C158.904 27.8451 158.442 27.8687 158.237 27.8687V31.0965V31.0729ZM159.288 29.6828C159.672 29.6828 159.903 29.8242 159.903 30.0834C159.903 30.3897 159.672 30.5546 159.262 30.5546C159.083 30.5546 158.929 30.531 158.852 30.531V29.6828H159.288ZM159.237 28.3634C159.57 28.3634 159.801 28.5048 159.801 28.764C159.801 29.0703 159.57 29.1881 159.288 29.1881H158.878V28.3634C158.98 28.3634 159.134 28.3399 159.262 28.3399L159.237 28.3634ZM162.005 29.4708C162.005 30.4839 162.799 31.1436 163.824 31.1436C164.875 31.1436 165.669 30.4368 165.669 29.4708C165.669 28.4577 164.875 27.798 163.824 27.798C162.748 27.798 162.005 28.5284 162.005 29.4708ZM162.645 29.4708C162.645 28.8111 163.158 28.3399 163.824 28.3399C164.491 28.3399 165.003 28.8111 165.003 29.4708C165.003 30.1069 164.567 30.6017 163.824 30.6017C163.158 30.6017 162.645 30.1069 162.645 29.4708ZM168.207 31.1436C168.847 31.1436 169.437 30.7902 169.437 30.1776C169.437 29.8006 169.257 29.5179 168.822 29.4001V29.3765C169.155 29.2116 169.283 28.9053 169.283 28.6697C169.283 28.1043 168.847 27.7744 168.232 27.7744C167.745 27.7744 167.335 27.9865 167.079 28.2692L167.438 28.6462C167.643 28.4106 167.848 28.2927 168.155 28.2927C168.437 28.2927 168.668 28.4341 168.668 28.6933C168.668 28.9524 168.412 29.1174 168.155 29.1174H167.822V29.6593H168.181C168.591 29.6593 168.796 29.8242 168.796 30.0834C168.796 30.4132 168.489 30.5546 168.155 30.5546C167.873 30.5546 167.54 30.3897 167.31 30.154L166.976 30.531C167.156 30.7902 167.566 31.0729 168.181 31.0729L168.207 31.1436ZM171.18 31.0965H171.795V29.4237L173.23 31.0965H174.024L172.487 29.3765L173.922 27.8687H173.179L171.795 29.4001V27.8687H171.18V31.0965ZM176.023 31.0965L177.868 28.8111V31.0965H178.484V27.8687H177.945L176.1 30.154V27.8687H175.485V31.0965H176.023Z" fill="white"/>
</svg>
