<svg width="18" height="18" viewBox="0 0 18 18" fill="none" xmlns="http://www.w3.org/2000/svg">
<path d="M9 1.125C13.3418 1.125 16.875 4.6582 16.875 9C16.875 13.3418 13.3418 16.875 9 16.875C4.6582 16.875 1.125 13.3418 1.125 9C1.125 4.6582 4.6582 1.125 9 1.125ZM9 0C4.02979 0 0 4.02979 0 9C0 13.9702 4.02979 18 9 18C13.9702 18 18 13.9702 18 9C18 4.02979 13.9702 0 9 0ZM14.0175 12.0092L13.9669 11.8554C13.8483 11.5016 13.4571 11.1325 13.0968 11.0336L11.7664 10.6699C11.406 10.5722 10.8919 10.704 10.6271 10.9688L10.1459 11.45C8.39689 10.9764 7.02471 9.60427 6.55228 7.85524L7.0335 7.37402C7.29717 7.11035 7.42901 6.59619 7.33124 6.23475L6.96864 4.9043C6.87087 4.54395 6.49951 4.15283 6.14577 4.03418L5.99414 3.98362C5.63927 3.86497 5.13281 3.98471 4.86914 4.24951L4.14844 4.97021C4.01991 5.09766 3.9375 5.46349 3.9375 5.46462C3.91331 7.75199 4.80983 9.95474 6.42702 11.573C8.03981 13.1858 10.2349 14.0812 12.5145 14.0614C12.5266 14.0614 12.9035 13.9812 13.032 13.8527L13.7527 13.132C14.0164 12.8694 14.135 12.3629 14.0175 12.0092Z" fill="#FF5000"/>
</svg>
